<?xml version="1.0" standalone="no"?>
<!DOCTYPE svg PUBLIC "-//W3C//DTD SVG 20010904//EN"
 "http://www.w3.org/TR/2001/REC-SVG-20010904/DTD/svg10.dtd">
<svg version="1.0" xmlns="http://www.w3.org/2000/svg"
 width="500.000000pt" height="250.000000pt" viewBox="0 0 500.000000 250.000000"
 preserveAspectRatio="xMidYMid meet">

<g transform="translate(0.000000,250.000000) scale(0.100000,-0.100000)"
fill="#000000" stroke="none">
<path d="M2322 2438 c-5 -5 -39 -20 -75 -33 -146 -51 -333 -170 -430 -274 -98
-105 -142 -210 -118 -284 17 -51 41 -57 41 -9 0 52 25 142 56 205 37 73 171
202 265 254 41 24 112 56 157 73 99 36 97 41 43 -120 -91 -271 -237 -533 -415
-746 -35 -41 -38 -43 -59 -30 -94 61 -288 74 -382 25 -30 -15 -62 -42 -80 -68
-27 -38 -30 -51 -30 -114 1 -133 66 -243 173 -292 31 -15 67 -32 79 -38 12 -5
73 -10 135 -10 165 0 344 47 536 141 52 26 64 27 136 22 l78 -5 19 -49 c44
-116 150 -157 262 -100 45 23 97 74 97 97 0 15 -9 11 -47 -21 -124 -103 -206
-103 -258 1 -36 74 -34 82 29 96 68 15 169 64 270 129 43 29 85 52 92 52 8 0
14 5 14 10 0 17 -14 11 -106 -46 -49 -31 -113 -68 -143 -81 -53 -23 -180 -58
-187 -50 -2 2 -5 26 -6 54 -2 49 -1 53 57 115 71 75 109 142 131 228 17 69 13
117 -16 166 -18 31 -18 32 8 75 78 133 175 234 265 279 73 36 106 34 137 -9
33 -47 43 -113 37 -244 -6 -152 -35 -266 -145 -577 -82 -232 -156 -472 -192
-624 -16 -68 -18 -91 -9 -102 6 -8 17 -11 25 -6 7 4 47 64 88 132 86 145 276
431 374 563 110 149 211 264 345 394 250 243 451 363 607 363 52 0 64 -4 84
-25 29 -31 48 -32 44 -3 -4 29 -74 57 -146 57 -64 1 -182 -36 -268 -84 -198
-111 -462 -365 -684 -660 -84 -112 -293 -424 -369 -549 -22 -39 -41 -63 -41
-55 0 24 111 347 204 592 123 327 158 467 158 632 -1 173 -59 255 -183 255
-105 0 -241 -108 -341 -271 -28 -45 -51 -72 -59 -70 -8 2 -38 9 -67 15 l-53
11 41 40 c60 58 137 178 156 242 10 36 15 80 12 124 -3 58 -8 74 -34 106 -58
71 -107 92 -250 107 -29 3 -56 0 -62 -6z m186 -49 c63 -31 94 -82 99 -167 6
-79 -15 -145 -76 -238 -66 -103 -135 -171 -194 -190 -73 -24 -178 -78 -201
-103 -19 -21 -19 -21 1 -21 37 0 148 42 208 78 54 33 67 37 132 37 42 0 77 -5
84 -12 9 -9 2 -33 -29 -105 -41 -93 -92 -254 -92 -289 0 -24 -50 -80 -120
-134 -92 -70 -97 -72 -167 -37 -79 40 -305 222 -294 236 213 274 280 374 362
540 53 106 108 259 139 384 11 42 11 42 57 42 27 0 65 -9 91 -21z m89 -746
c-7 -69 -94 -250 -111 -232 -12 12 91 289 108 289 5 0 6 -26 3 -57z m-982
-134 c33 -6 86 -24 118 -40 54 -28 58 -32 45 -49 -138 -193 -197 -293 -218
-368 -13 -50 -23 -50 -102 0 -93 59 -148 154 -148 258 0 110 57 177 172 199
61 12 67 12 133 0z m326 -187 c54 -43 133 -96 174 -118 73 -38 75 -40 55 -56
-31 -25 -230 -106 -317 -129 -80 -20 -235 -30 -249 -16 -19 18 199 397 227
397 6 0 55 -35 110 -78z m483 -154 c-7 -10 -104 -10 -103 0 0 4 21 21 47 38
l47 31 7 -31 c3 -17 4 -34 2 -38z"/>
<path d="M2910 439 c-52 -16 -90 -48 -111 -93 -57 -126 26 -256 165 -256 141
0 225 129 167 257 -34 75 -136 117 -221 92z m133 -46 c41 -21 67 -70 67 -126
0 -61 -24 -103 -72 -128 -69 -36 -140 -20 -192 41 -42 51 -33 157 18 199 47
39 119 45 179 14z"/>
<path d="M4020 439 c-52 -16 -90 -48 -111 -93 -57 -127 26 -256 165 -256 61 0
125 26 132 54 3 12 4 44 2 72 -2 37 -7 50 -20 52 -16 3 -18 -5 -18 -61 0 -64
-1 -65 -31 -76 -72 -25 -135 -8 -183 49 -52 63 -28 178 46 216 41 22 120 22
153 0 30 -20 45 -20 45 -1 0 35 -115 63 -180 44z"/>
<path d="M100 265 l0 -175 93 0 c150 0 197 24 197 98 0 25 -8 42 -29 61 -28
27 -28 27 -10 50 19 23 25 65 13 96 -13 32 -59 45 -164 45 l-100 0 0 -175z
m209 136 c26 -14 36 -52 22 -80 -14 -26 -77 -43 -144 -39 l-52 3 -3 54 c-5 83
-3 85 82 78 41 -3 84 -10 95 -16z m12 -156 c25 -10 40 -51 29 -80 -13 -34 -47
-45 -141 -45 l-79 0 0 63 c0 35 3 67 8 71 8 9 158 2 183 -9z"/>
<path d="M480 265 l0 -175 125 0 c103 0 125 3 125 15 0 11 -21 15 -107 17
l-108 3 0 65 0 65 93 3 c68 2 92 6 89 15 -2 8 -33 12 -93 13 l-89 2 -3 61 -3
61 106 0 c87 0 105 3 105 15 0 13 -20 15 -120 15 l-120 0 0 -175z"/>
<path d="M820 265 l0 -175 115 0 c96 0 115 3 115 15 0 12 -18 15 -100 15
l-100 0 0 160 c0 136 -2 160 -15 160 -13 0 -15 -26 -15 -175z"/>
<path d="M1196 388 c-13 -29 -41 -89 -61 -133 -78 -168 -77 -165 -56 -165 13
0 25 16 40 50 l22 50 98 0 99 0 21 -50 c15 -35 27 -50 41 -50 16 0 11 18 -47
143 -36 78 -71 157 -79 175 -22 50 -50 43 -78 -20z m87 -76 c20 -48 37 -91 37
-95 0 -4 -36 -7 -80 -7 -51 0 -80 4 -80 11 0 14 73 179 80 179 3 0 22 -40 43
-88z"/>
<path d="M1430 435 c0 -2 33 -80 74 -172 55 -123 80 -169 93 -171 16 -2 29 20
70 115 28 65 63 144 77 176 24 52 24 57 8 57 -14 0 -34 -35 -82 -146 -35 -80
-67 -147 -70 -149 -3 -1 -34 64 -70 146 -48 110 -70 149 -82 149 -10 0 -18 -2
-18 -5z"/>
<path d="M1830 265 c0 -168 1 -175 20 -175 19 0 20 7 20 175 0 168 -1 175 -20
175 -19 0 -20 -7 -20 -175z"/>
<path d="M1990 265 l0 -175 120 0 c100 0 120 3 120 15 0 12 -18 15 -105 15
l-106 0 3 68 3 67 93 3 c68 2 92 6 89 15 -2 8 -33 12 -93 13 l-89 2 -3 60 -3
61 102 3 c71 2 104 7 107 16 3 9 -25 12 -117 12 l-121 0 0 -175z"/>
<path d="M2410 433 c0 -5 33 -83 73 -174 88 -195 98 -203 139 -107 14 35 49
114 77 176 43 97 48 112 32 112 -14 0 -33 -33 -81 -142 -34 -79 -65 -146 -69
-151 -4 -4 -36 59 -72 140 -43 99 -70 149 -82 151 -9 2 -17 0 -17 -5z"/>
<path d="M3250 328 c67 -108 70 -115 70 -175 0 -56 2 -63 20 -63 18 0 20 7 20
65 0 63 2 69 66 171 36 59 63 109 60 111 -13 14 -37 -13 -87 -96 -29 -50 -56
-91 -59 -91 -3 0 -30 42 -61 93 -39 65 -61 93 -77 95 -19 3 -12 -12 48 -110z"/>
<path d="M3651 418 c-5 -13 -41 -92 -79 -175 -61 -132 -68 -153 -51 -153 13 0
25 15 40 50 l21 50 99 0 98 0 22 -50 c15 -34 27 -50 40 -50 21 0 25 -10 -73
205 -51 112 -69 141 -86 143 -15 2 -25 -4 -31 -20z m72 -105 c21 -49 37 -91
37 -95 0 -5 -36 -8 -80 -8 -44 0 -80 3 -80 8 0 12 75 182 80 182 3 0 23 -39
43 -87z"/>
<path d="M4310 265 l0 -175 125 0 c104 0 125 2 125 15 0 12 -18 15 -105 15
l-105 0 0 70 0 70 90 0 c73 0 90 3 90 15 0 12 -17 15 -90 15 l-90 0 0 60 0 60
100 0 c82 0 100 3 100 15 0 13 -20 15 -120 15 l-120 0 0 -175z"/>
<path d="M4650 265 c0 -168 1 -175 20 -175 18 0 20 7 20 55 l0 55 64 0 64 0
37 -55 c24 -34 46 -55 57 -55 21 0 21 2 -29 71 -39 54 -39 55 -14 62 24 6 61
64 61 95 0 40 -28 90 -59 106 -21 11 -58 16 -126 16 l-95 0 0 -175z m216 120
c20 -20 25 -33 22 -67 -4 -59 -38 -81 -128 -86 l-70 -4 0 91 0 91 75 0 c68 0
79 -3 101 -25z"/>
</g>
</svg>
