<svg height="25" viewBox="0 0 25 25" width="25" xmlns="http://www.w3.org/2000/svg"><path d="m12.5 0c-3.31521 0-6.49463 1.31696-8.83883 3.66117-2.34421 2.3442-3.66117 5.52362-3.66117 8.83883 0 3.3152 1.31696 6.4946 3.66117 8.8388 2.3442 2.3442 5.52362 3.6612 8.83883 3.6612 3.3152 0 6.4946-1.317 8.8388-3.6612s3.6612-5.5236 3.6612-8.8388c0-3.31521-1.317-6.49463-3.6612-8.83883-2.3442-2.34421-5.5236-3.66117-8.8388-3.66117zm0 6c2.7555 0 5 2.2445 5 5 0 3.8348-3.6467 7.3537-4.6465 8.3535l-.3535.3535-.3535-.3535c-1.0011-1.0011-4.6465-4.5287-4.6465-8.3535 0-2.7555 2.2445-5 5-5zm0 1c-2.2151 0-4 1.7849-4 4 0 2.9376 2.792 5.99 4 7.2285 1.209-1.2381 4-4.2797 4-7.2285 0-2.2151-1.7849-4-4-4zm0 2c1.0986 0 2 .9013 2 2 0 1.0986-.9014 2-2 2s-2-.9014-2-2c0-1.0987.9014-2 2-2zm0 1c-.5582 0-1 .4418-1 1s.4418 1 1 1 1-.4418 1-1-.4418-1-1-1z" fill="#219653"/></svg>